<svg xmlns="http://www.w3.org/2000/svg" xmlns:xlink="http://www.w3.org/1999/xlink" width="100" zoomAndPan="magnify" viewBox="0 0 75 74.999997" height="100" preserveAspectRatio="xMidYMid meet" version="1.0"><defs><clipPath id="bc5630a5d8"><path d="M 0 2.183594 L 51 2.183594 L 51 53 L 0 53 Z M 0 2.183594 " clip-rule="nonzero"/></clipPath><clipPath id="ade238169c"><path d="M 36 34 L 75 34 L 75 72.683594 L 36 72.683594 Z M 36 34 " clip-rule="nonzero"/></clipPath><clipPath id="98e5f1ffa5"><path d="M 45 34 L 75 34 L 75 72.683594 L 45 72.683594 Z M 45 34 " clip-rule="nonzero"/></clipPath></defs><g clip-path="url(#bc5630a5d8)"><path fill="#f1487a" d="M 50.414062 23.546875 C 50.078125 21.296875 48.171875 19.71875 46.160156 20.015625 C 45.625 20.097656 45.132812 20.304688 44.710938 20.605469 L 44.699219 20.609375 C 44.402344 20.828125 44.132812 21.089844 43.902344 21.390625 C 41.542969 23.382812 39.996094 21.777344 39.554688 21.203125 L 37.953125 10.472656 L 27.007812 12.101562 C 26.207031 11.738281 24.671875 10.664062 25.777344 8.09375 C 26.003906 7.789062 26.175781 7.457031 26.292969 7.105469 L 26.300781 7.09375 L 26.296875 7.09375 C 26.460938 6.601562 26.519531 6.074219 26.4375 5.542969 C 26.140625 3.53125 24.070312 2.167969 21.816406 2.503906 C 19.566406 2.839844 17.984375 4.738281 18.28125 6.753906 C 18.359375 7.289062 18.570312 7.773438 18.871094 8.195312 L 18.867188 8.199219 L 18.878906 8.207031 C 19.09375 8.511719 19.355469 8.777344 19.660156 9.003906 C 21.46875 11.144531 20.3125 12.613281 19.652344 13.195312 L 8.707031 14.824219 L 10.273438 25.347656 L 10.242188 25.351562 C 10.242188 25.351562 9.457031 28.46875 6.066406 27.015625 C 5.757812 26.792969 5.429688 26.617188 5.078125 26.5 L 5.0625 26.492188 C 4.570312 26.332031 4.042969 26.277344 3.507812 26.355469 C 1.492188 26.652344 0.132812 28.71875 0.464844 30.964844 C 0.800781 33.214844 2.707031 34.796875 4.722656 34.492188 C 5.257812 34.414062 5.746094 34.207031 6.171875 33.910156 L 6.179688 33.898438 C 6.480469 33.6875 6.75 33.421875 6.976562 33.121094 C 9.796875 30.742188 11.457031 33.492188 11.457031 33.492188 L 11.488281 33.492188 L 13.058594 44.019531 L 23.605469 42.453125 C 23.605469 42.453125 26.726562 43.234375 25.265625 46.621094 C 25.046875 46.925781 24.871094 47.257812 24.753906 47.609375 L 24.746094 47.621094 L 24.75 47.621094 C 24.585938 48.113281 24.527344 48.640625 24.609375 49.175781 C 24.910156 51.183594 26.976562 52.546875 29.226562 52.210938 C 31.480469 51.875 33.066406 49.972656 32.761719 47.960938 C 32.683594 47.425781 32.476562 46.941406 32.175781 46.519531 L 32.179688 46.515625 L 32.167969 46.507812 C 31.953125 46.207031 31.6875 45.9375 31.386719 45.710938 C 29.007812 42.898438 31.757812 41.242188 31.761719 41.238281 L 42.308594 39.671875 L 40.710938 28.941406 C 40.960938 28.261719 41.976562 26.28125 44.816406 27.5 C 45.121094 27.722656 45.453125 27.894531 45.804688 28.015625 L 45.816406 28.019531 C 46.308594 28.179688 46.835938 28.238281 47.371094 28.160156 C 49.386719 27.859375 50.75 25.792969 50.414062 23.546875 " fill-opacity="1" fill-rule="nonzero"/></g><path fill="#d9346d" d="M 4.722656 34.492188 C 5.257812 34.414062 5.746094 34.207031 6.171875 33.910156 L 6.179688 33.898438 C 6.480469 33.6875 6.75 33.421875 6.976562 33.121094 C 9.796875 30.742188 11.457031 33.492188 11.457031 33.492188 L 11.488281 33.492188 L 13.058594 44.019531 L 23.605469 42.453125 C 23.605469 42.453125 26.726562 43.234375 25.265625 46.621094 C 25.046875 46.925781 24.871094 47.257812 24.753906 47.609375 L 24.746094 47.621094 L 24.75 47.621094 C 24.585938 48.113281 24.527344 48.640625 24.609375 49.175781 C 24.910156 51.183594 26.976562 52.546875 29.226562 52.210938 C 31.480469 51.875 33.066406 49.972656 32.761719 47.960938 C 32.683594 47.425781 32.476562 46.941406 32.175781 46.519531 L 32.179688 46.515625 L 32.167969 46.507812 C 31.953125 46.207031 31.6875 45.9375 31.386719 45.710938 C 29.007812 42.898438 31.757812 41.242188 31.761719 41.238281 L 42.308594 39.671875 L 41.554688 34.597656 C 21.992188 33.3125 14.589844 22.171875 11.800781 14.359375 L 8.707031 14.824219 L 10.273438 25.347656 L 10.242188 25.351562 C 10.242188 25.351562 9.457031 28.46875 6.066406 27.015625 C 5.757812 26.792969 5.429688 26.617188 5.078125 26.5 L 5.0625 26.492188 C 4.570312 26.332031 4.042969 26.277344 3.507812 26.355469 C 1.492188 26.652344 0.132812 28.71875 0.464844 30.964844 C 0.800781 33.214844 2.707031 34.796875 4.722656 34.492188 " fill-opacity="1" fill-rule="nonzero"/><g clip-path="url(#ade238169c)"><path fill="#61a3dd" d="M 54.351562 38.351562 C 54.351562 38.351562 52.023438 40.5625 54.964844 42.792969 C 55.304688 42.949219 55.625 43.152344 55.898438 43.402344 L 55.910156 43.410156 L 55.90625 43.410156 C 56.289062 43.757812 56.601562 44.1875 56.796875 44.691406 C 57.527344 46.589844 56.394531 48.789062 54.269531 49.605469 C 52.144531 50.421875 49.828125 49.542969 49.097656 47.644531 C 48.902344 47.136719 48.847656 46.613281 48.894531 46.097656 L 48.898438 46.085938 C 48.9375 45.71875 49.035156 45.355469 49.1875 45.007812 C 49.871094 41.390625 46.65625 41.300781 46.65625 41.300781 L 36.703125 45.117188 L 40.527344 55.054688 C 40.527344 55.054688 42.746094 57.378906 44.980469 54.445312 C 45.136719 54.101562 45.339844 53.785156 45.585938 53.507812 L 45.597656 53.5 L 45.597656 53.503906 C 45.945312 53.117188 46.375 52.8125 46.882812 52.613281 C 48.785156 51.886719 50.988281 53.015625 51.804688 55.140625 C 52.621094 57.257812 51.742188 59.570312 49.839844 60.300781 C 49.332031 60.492188 48.808594 60.550781 48.292969 60.5 L 48.277344 60.496094 C 47.910156 60.460938 47.546875 60.359375 47.199219 60.210938 C 43.570312 59.527344 43.480469 62.738281 43.480469 62.738281 L 47.304688 72.671875 L 74.910156 62.085938 L 64.308594 34.53125 L 54.351562 38.351562 " fill-opacity="1" fill-rule="nonzero"/></g><path fill="#a1bedd" d="M 62.980469 35.042969 L 64.308594 34.53125 L 62.980469 35.042969 " fill-opacity="1" fill-rule="nonzero"/><g clip-path="url(#98e5f1ffa5)"><path fill="#5698cf" d="M 47.304688 72.671875 L 45.835938 68.851562 C 52.78125 66.890625 67.210938 59.796875 62.980469 35.042969 L 64.308594 34.53125 L 74.910156 62.085938 L 47.304688 72.671875 " fill-opacity="1" fill-rule="nonzero"/></g></svg>